<svg id="Layer_1" data-name="Layer 1" xmlns="http://www.w3.org/2000/svg" viewBox="0 0 970.25 224.63"><defs><style>.cls-1{fill:#0085c9;}.cls-2{fill:#2a475f;}</style></defs><path class="cls-1" d="M0,112.31A112.31,112.31,0,1,0,112.31,0,112.31,112.31,0,0,0,0,112.31Zm202.15,11a90.52,90.52,0,0,1-78.39,78.75V155.47a44.72,44.72,0,0,0,31.82-32.11Zm-89.84,12a23.08,23.08,0,1,1,23.08-23.08A23.07,23.07,0,0,1,112.31,135.39Zm89.82-34.34h-46.6a44.71,44.71,0,0,0-31.77-31.89V22.51A90.54,90.54,0,0,1,202.13,101.05Z"/><path class="cls-2" d="M346.27,135.18l11.8-77.59h19.1l-20.1,110.66H338.29L321.68,89.49l-16.62,78.76H286.29L266.19,57.59h19.1l11.8,77.59,15.62-77.59h17.94Z"/><path class="cls-2" d="M397.6,135v6.31c0,9.31,4,13.46,13.95,13.46a52.45,52.45,0,0,0,18.78-3.32L433,165.75a72.43,72.43,0,0,1-24.43,4.16C389,169.91,379,160.1,379,141.5V114.58c0-18.28,10.3-28.41,27.75-28.41,19.27,0,26.08,10.47,26.08,28.08V135Zm18.11-23.6c0-6.81-2-10.46-8.81-10.46-6.64,0-9.3,3.32-9.3,10.46v9.14h18.11Z"/><path class="cls-2" d="M565.06,168.25H546.62l-.83-71.11-16.28,47H511.23L495,97.14l-.83,71.11H475.67L478.5,57.59h19.11l22.76,66.29,22.76-66.29h19.11Z"/><path class="cls-2" d="M635.5,142.83c0,16.78-10.14,27.08-29.24,27.08s-29.08-10.3-29.08-27.08V113.25c0-16.78,10-27.08,29.08-27.08s29.24,10.3,29.24,27.08Zm-18.61-31.57c0-7-4.15-9.64-10.63-9.64s-10.47,2.66-10.47,9.64v33.56c0,7,4,9.64,10.47,9.64s10.63-2.66,10.63-9.64Z"/><path class="cls-2" d="M684.84,168.25V109.93c0-4.15-2.16-6.31-6.65-6.31a24.21,24.21,0,0,0-11.3,2.82v61.81h-18.6V87.83h15.45l1.83,5.82a33.67,33.67,0,0,1,20.76-7.48c11,0,17.11,5.15,17.11,17.11v65Z"/><path class="cls-2" d="M767.24,117.41c0,15.78-7.81,28.24-26.25,28.24h-1.66a10.94,10.94,0,0,0-2.16,6.31c0,2.33,1.16,3.83,4.15,4.16l8.8,1.16c13.79,1.83,20.11,7,20.11,21.6,0,16.62-10.64,23.76-30.08,23.76-8.14,0-17.11-1.16-24.09-3.66l2.5-14.28a70.37,70.37,0,0,0,21.26,3.15c8.14,0,12.3-1.66,12.3-7.47,0-4.82-1-6.65-8.14-7.48l-10.47-1.33c-10.14-1.33-14.79-6.65-14.79-14.45,0-6.32,3-10.64,7-13.8-9.14-3.82-13.46-12.62-13.46-25.91v-2.83c0-17.94,9.14-28.41,27.42-28.41a39.89,39.89,0,0,1,11.46,1.66h22.43V99l-8.47,2.66a35.73,35.73,0,0,1,2.16,13Zm-18-2.16c0-10.64-2.16-14.46-9.63-14.46-7.32,0-9.64,4-9.64,14.46v2.65c0,9.47,2.49,13.3,9.64,13.3s9.63-3.83,9.63-13.3Z"/><path class="cls-2" d="M837,142.83c0,16.78-10.13,27.08-29.24,27.08s-29.07-10.3-29.07-27.08V113.25c0-16.78,10-27.08,29.07-27.08S837,96.47,837,113.25Zm-18.6-31.57c0-7-4.16-9.64-10.64-9.64s-10.47,2.66-10.47,9.64v33.56c0,7,4,9.64,10.47,9.64s10.64-2.66,10.64-9.64Z"/><path class="cls-2" d="M849.8,168.25v-114l18.61-2.83V168.25Z"/><path class="cls-2" d="M883.36,77.53V54.93H902v22.6Zm0,90.72V87.83H902v80.42Z"/><path class="cls-2" d="M970.25,168.25h-15l-2.16-5.82a28.77,28.77,0,0,1-18.94,7.48c-15.29,0-20.11-9.81-20.11-24.92,0-18,7-23.93,23.09-23.93h14.46V110.93c0-6.65-3.32-8.48-11-8.48a52.48,52.48,0,0,0-18.95,4l-3-15.12c7.48-3.49,17.45-5.15,26.09-5.15,16.78,0,25.42,5.32,25.42,21.27Zm-18.61-32.4h-11c-6.48,0-8,2.82-8,9.47,0,6.81,1.66,9.8,8,9.8a25.27,25.27,0,0,0,11-2.82Z"/></svg>