<?xml version="1.0" encoding="UTF-8"?>
<svg id="Layer_1" xmlns="http://www.w3.org/2000/svg" version="1.1" viewBox="0 0 536 100">
  <!-- Generator: Adobe Illustrator 30.2.1, SVG Export Plug-In . SVG Version: 2.1.1 Build 1)  -->
  <defs>
    <style>
      .st0 {
        fill: #e9b320;
      }

      .st1 {
        fill: #1db681;
      }

      .st2 {
        fill: #010101;
        font-family: PlayfairDisplay-Medium, 'Playfair Display';
        font-size: 55px;
        font-weight: 500;
      }

      .st3 {
        fill: #4466b0;
      }
    </style>
  </defs>
  <text class="st2" transform="translate(110.62 66.83)"><tspan x="0" y="0">WeMongolia.com</tspan></text>
  <g>
    <path class="st3" d="M80,30.91c0,38.48-18.2,69.6-40.55,69.09C17.86,99.49.25,69,0,31.7c-.02-2.16.03-4.29.13-6.39.08-1.89.21-3.75.39-5.6C1.18,12.73,2.45,6.11,4.21,0c0,.33-.01.65-.01.97,0,34.15,16.03,61.82,35.79,61.82S75.79,35.12,75.79.97V0c1.77,6.11,3.03,12.73,3.69,19.72.17,1.84.3,3.7.39,5.59.09,1.84.13,3.7.13,5.59Z"/>
    <path class="st1" d="M79.87,25.31c-1.66,35.85-19.16,63.98-40.41,63.49C18.79,88.33,1.78,60.4.14,25.31c.08-1.89.21-3.75.39-5.6C1.18,12.73,2.45,6.11,4.21,0c0,.33-.01.65-.01.97,0,34.15,16.03,61.82,35.79,61.82S75.79,35.12,75.79.97V0c1.77,6.11,3.03,12.73,3.69,19.72.17,1.84.3,3.7.39,5.59Z"/>
    <path class="st0" d="M79.47,19.72c-3.13,33.14-19.89,58.36-40.02,57.9C19.9,77.16,3.61,52.13.52,19.71,1.18,12.73,2.44,6.11,4.21,0c0,.32-.01.65-.01.97,0,34.14,16.03,61.82,35.79,61.82S75.79,35.12,75.79.97V0c1.77,6.11,3.03,12.73,3.69,19.72Z"/>
  </g>
</svg>